<svg width="19" height="19" viewBox="0 0 19 19" fill="none" xmlns="http://www.w3.org/2000/svg">
<path fill-rule="evenodd" clip-rule="evenodd" d="M3.94447 0.716746C2.47215 1.18676 1.28479 2.19528 0.634545 3.52812C0.270865 4.27353 0.264465 4.37625 0.264465 9.53577C0.264465 14.7236 0.268945 14.7941 0.640945 15.55C1.12143 16.5258 2.10735 17.521 3.13711 18.0699L3.94447 18.5H9.06447C14.0902 18.5 14.1981 18.4932 14.9262 18.1274C16.1253 17.5252 16.9251 16.7231 17.4977 15.5487L18.0245 14.4685V9.52253V4.57653L17.4645 3.47692C16.7921 2.15635 15.8118 1.26397 14.5368 0.811718C13.7133 0.519371 13.2286 0.491752 9.10847 0.501604C5.93151 0.509196 4.39391 0.573157 3.94447 0.716746ZM13.7845 2.42657C14.5424 2.63945 15.4777 3.44736 15.9091 4.26174C16.2525 4.90974 16.2645 5.08887 16.2645 9.53577C16.2645 13.9827 16.2525 14.1618 15.9091 14.8098C15.4777 15.6242 14.5424 16.4321 13.7845 16.645C13.4765 16.7315 11.3165 16.802 8.98447 16.8016C4.86287 16.801 4.72175 16.7902 3.93183 16.419C3.01903 15.9899 2.56351 15.4866 2.18703 14.4911C1.96831 13.9134 1.93711 13.1258 1.97727 9.2108L2.02447 4.60948L2.50447 3.88265C2.83439 3.38308 3.25599 3.01692 3.85311 2.71165L4.72191 2.26748L8.97311 2.26845C11.3113 2.26893 13.4765 2.34 13.7845 2.42657ZM13.0725 4.10216C12.5653 4.61417 12.5513 5.17286 13.0347 5.63124C13.5425 6.11289 14.163 6.08285 14.5728 5.55678C14.9779 5.03686 14.9923 4.66924 14.6245 4.2304C14.1587 3.67478 13.5459 3.62423 13.0725 4.10216ZM7.68559 5.07482C5.69007 5.79454 4.51487 7.44993 4.50799 9.55031C4.49999 11.969 6.28799 13.9593 8.66431 14.1768C10.5625 14.3505 12.3638 13.3314 13.2633 11.5746C13.8683 10.3933 13.8683 8.67827 13.2633 7.49693C12.2033 5.4266 9.71071 4.34427 7.68559 5.07482ZM10.0673 6.87848C11.2534 7.3787 11.9014 8.31744 11.9014 9.53577C11.9014 10.4246 11.5809 11.1169 10.903 11.6927C9.46879 12.911 7.46271 12.5079 6.62447 10.8328C6.20303 9.99044 6.16863 9.27234 6.51055 8.44617C6.84207 7.64537 7.18319 7.28518 7.94447 6.93227C8.73151 6.5674 9.29599 6.55303 10.0673 6.87848Z" fill="#605E67"/>
</svg>
