<svg width="19" height="19" viewBox="0 0 19 19" fill="none" xmlns="http://www.w3.org/2000/svg">
<path fill-rule="evenodd" clip-rule="evenodd" d="M1.88288 0.836478C0.77173 1.56756 0.779033 1.51118 0.779712 9.49672C0.780221 16.4018 0.794996 16.741 1.11783 17.2703C1.81597 18.4154 2.15255 18.4986 6.08597 18.4993L9.60977 18.5V15.2734V12.0468H8.67898C7.59127 12.0468 7.5191 11.9264 7.60486 10.2565L7.65682 9.2447L8.60867 9.19444L9.56053 9.14434L9.6597 7.6139C9.8567 4.57307 10.9103 3.55567 13.8625 3.55567C14.905 3.55567 15.199 3.61137 15.2806 3.82433C15.424 4.19793 15.4051 5.63785 15.2538 5.86881C15.1852 5.97359 14.6503 6.09315 14.0651 6.13458C13.4798 6.17602 12.9081 6.30305 12.7944 6.41666C12.6807 6.53044 12.5589 7.1941 12.5237 7.89156L12.4596 9.15979H13.8421C14.8758 9.15979 15.2477 9.22025 15.3165 9.39958C15.3671 9.53136 15.3457 10.1617 15.2688 10.8006L15.129 11.9619L13.8129 12.0114L12.4967 12.061V15.2805V18.5L14.7469 18.4993C17.272 18.4986 17.7996 18.3232 18.4414 17.2703C18.764 16.7412 18.779 16.4018 18.7795 9.52508C18.7802 1.55109 18.7761 1.51814 17.6807 0.841233C17.1475 0.511779 16.8506 0.498872 9.75956 0.500061C2.71059 0.50108 2.37026 0.515515 1.88288 0.836478Z" fill="#605E67"/>
</svg>
