<svg width="24" height="19" viewBox="0 0 24 19" fill="none" xmlns="http://www.w3.org/2000/svg">
<path fill-rule="evenodd" clip-rule="evenodd" d="M8.14073 0.567773C7.51103 0.673883 5.97721 1.12597 4.84655 1.53863L3.67358 1.9668L2.93988 3.18797C1.65806 5.32136 0.845455 7.38241 0.379152 9.68344C0.11297 10.997 -0.0652121 14.0453 0.071394 14.9484C0.156121 15.5086 0.181818 15.5372 1.18 16.1823C2.34436 16.9347 4.096 17.7852 5.35637 18.2103L6.21576 18.5L6.81455 17.5735C7.144 17.0638 7.41346 16.5901 7.41346 16.5208C7.41346 16.4515 7.22412 16.3268 6.99273 16.2439C6.76134 16.1609 6.32037 15.9537 6.01297 15.7833C5.50303 15.5008 5.47091 15.4569 5.64594 15.2833C5.82109 15.1096 5.88837 15.1124 6.41358 15.3149C10.1441 16.7533 13.8949 16.7533 17.6255 15.3149C18.1639 15.1073 18.2142 15.106 18.4041 15.2943C18.5941 15.4826 18.5436 15.5251 17.6219 15.9511C17.08 16.2016 16.6341 16.4606 16.6312 16.5267C16.6281 16.5928 16.8949 17.0636 17.2242 17.573L17.8228 18.4993L18.8302 18.1562C19.3844 17.9675 20.1104 17.691 20.4438 17.5416C21.2701 17.1715 23.5747 15.8071 23.7721 15.5712C24.0114 15.2853 24.0748 13.3337 23.9019 11.5713C23.5912 8.4005 22.5286 5.36739 20.7706 2.63194C20.3474 1.97353 20.3058 1.94493 19.1564 1.52349C18.5075 1.28555 17.5499 0.985966 17.0284 0.857744C15.2815 0.427894 15.4556 0.41071 15.1301 1.04581L14.8404 1.61085L12.0227 1.61818L9.20497 1.62551L8.91322 1.0547C8.75273 0.740818 8.58146 0.491224 8.53261 0.500237C8.48376 0.509249 8.3074 0.539653 8.14073 0.567773ZM9.2634 8.4452C9.77104 8.82915 10.1019 9.48167 10.1764 10.2457C10.2451 10.9514 9.77273 11.9988 9.20497 12.3997C8.63188 12.8042 7.688 12.8421 7.04922 12.4862C5.53443 11.6421 5.49831 9.24578 6.98667 8.33957C7.65115 7.93508 8.64994 7.98146 9.2634 8.4452ZM17.0405 8.3433C17.7461 8.7532 18.1258 9.47182 18.1246 10.3944C18.1235 11.1738 17.9896 11.5254 17.4896 12.061C17.0421 12.5405 16.6002 12.7413 15.9933 12.7413C14.9195 12.7413 14.0272 11.8458 13.8809 10.6214C13.767 9.6683 14.4079 8.50469 15.2316 8.16869C15.7223 7.9686 16.5297 8.04647 17.0405 8.3433Z" fill="#605E67"/>
</svg>
