<svg width="23" height="19" viewBox="0 0 23 19" fill="none" xmlns="http://www.w3.org/2000/svg">
<path fill-rule="evenodd" clip-rule="evenodd" d="M13.7746 0.765823C12.2416 1.31228 11.0712 2.92116 10.8525 4.78266C10.778 5.41728 10.6335 5.85103 10.4964 5.85103C10.3697 5.85103 9.60093 5.68102 8.78806 5.47306C6.75712 4.95363 4.88699 3.92244 3.2829 2.43719C1.8193 1.08208 1.76602 1.08112 1.38958 2.40096C0.99838 3.77275 1.30582 5.594 2.07116 6.43984C2.48095 6.89257 2.32934 7.10801 1.80014 6.82491C1.23088 6.52015 1.1958 6.55005 1.2004 7.33648C1.20768 8.58943 2.06503 10.0298 3.30494 10.8724L3.78373 11.1977L3.25664 11.2078C2.58196 11.2207 2.58733 11.5233 3.28022 12.5551C3.87976 13.4477 5.25078 14.4762 5.84113 14.4762C6.53171 14.4762 6.06423 14.9517 4.91957 15.4139C4.29492 15.6661 3.12401 15.968 2.31765 16.0847C1.5111 16.2014 0.821085 16.3833 0.784284 16.4887C0.672541 16.8075 2.60841 17.7223 4.30048 18.1505C7.39576 18.9337 11.2491 18.3734 13.9896 16.7419C15.3654 15.9227 17.4052 13.8803 18.229 12.497C19.1285 10.9866 19.9452 8.50049 20.0995 6.80402C20.2266 5.40616 20.2544 5.34521 21.2549 4.25883C22.6698 2.72259 22.6004 2.30551 21.03 2.90812C20.7721 3.00722 20.806 2.87554 21.1901 2.28615C21.712 1.48516 21.9223 0.745697 21.6091 0.812974C21.5037 0.835591 20.8708 1.0792 20.2026 1.35444L18.988 1.8547L18.2859 1.37188C17.8999 1.10623 17.3412 0.798023 17.0445 0.686663C16.301 0.407782 14.6679 0.447267 13.7746 0.765823Z" fill="#0D0F08"/>
</svg>
