<svg width="125" height="24" viewBox="0 0 125 24" fill="none" xmlns="http://www.w3.org/2000/svg">
<path fill-rule="evenodd" clip-rule="evenodd" d="M34.0137 0.268686C33.347 0.398788 32.0403 0.879868 31.1099 1.33751C24.1313 4.77026 22.4225 14.5793 27.8111 20.2769C29.2629 21.812 31.4887 23.1521 33.4553 23.6754C35.0564 24.1013 38.6677 24.0471 40.4148 23.5712C43.5375 22.7203 46.2039 20.5293 47.6264 17.6455C52.2853 8.19897 44.4727 -1.77388 34.0137 0.268686ZM13.2728 8.3385C13.2728 13.3327 13.161 16.6095 12.9638 17.3926C12.0515 21.0155 7.59735 22.4232 4.86036 19.9534C3.65362 18.8646 3.03705 17.667 3.03705 16.4126C3.03705 15.6 3.02978 15.5959 1.51839 15.5959H0L0.179395 17.1224C0.657512 21.1911 3.91383 24 8.1525 24C10.8717 24 13.1465 22.9145 14.49 20.9759C15.8902 18.9554 15.9419 18.5398 15.9546 9.19857L15.9664 0.511651H14.6196H13.2728V8.3385ZM57.7603 4.06777C58.9673 6.03788 60.9062 9.20207 62.0685 11.0995L64.1822 14.5489V19.113V23.6768H65.6637H67.1451V18.9901V14.3035L71.3203 7.5323C73.6166 3.8081 75.4954 0.705052 75.4954 0.636365C75.4954 0.567678 74.7983 0.511651 73.946 0.511651H72.3966L69.0315 6.02145C67.1807 9.05177 65.5694 11.4343 65.4506 11.3155C65.3318 11.1967 63.8064 8.74766 62.0609 5.87303L58.8873 0.646332L57.2264 0.566062L55.5656 0.486061L57.7603 4.06777ZM83.5762 12.0942V23.6768H85.0577H86.5392V18.7V13.723L91.1857 13.6495L95.8322 13.5757V12.2289V10.8821L91.1857 10.8083L86.5392 10.7347V6.96987V3.20527H91.6571H96.7749V1.85846V0.511651H90.1756H83.5762V12.0942ZM108.97 7.83991C107.319 11.8836 105.183 17.1008 104.225 19.4343L102.483 23.6768H104.04H105.596L106.754 20.8485L107.912 18.0202H113.488H119.064L120.222 20.8485L121.38 23.6768H122.978C124.152 23.6768 124.54 23.5873 124.437 23.3401C124.361 23.155 122.172 17.973 119.574 11.8248L114.85 0.646332L113.411 0.567139L111.972 0.488216L108.97 7.83991ZM40.8824 3.75988C44.5069 5.49484 46.4724 9.4216 45.8149 13.6139C45.3524 16.5635 43.28 19.2724 40.5257 20.5277C38.5823 21.4136 34.9397 21.3527 32.8963 20.4002C30.9529 19.4947 29.2987 17.8367 28.4109 15.9051C27.8361 14.6545 27.7092 13.9714 27.6977 12.0673C27.6847 9.93474 27.7585 9.60504 28.6264 7.91614C29.7421 5.74508 31.4717 4.16447 33.5369 3.4283C35.5482 2.71126 39.0192 2.86803 40.8824 3.75988ZM115.738 9.99884C116.864 12.7725 117.785 15.1059 117.785 15.1841C117.785 15.2624 115.833 15.3266 113.447 15.3266C109.428 15.3266 109.121 15.2918 109.281 14.8552C110.618 11.2096 113.382 4.62696 113.516 4.76945C113.613 4.87208 114.613 7.22549 115.738 9.99884Z" fill="#08031C"/>
</svg>
