<?xml version="1.0" encoding="UTF-8"?>
<svg width="1200pt" height="1200pt" version="1.1" viewBox="0 0 1200 1200" xmlns="http://www.w3.org/2000/svg">
 <path d="m662.98 741.22-157.44-157.44v125.77l157.44 111.02zm-297.59-297.59-57.289-57.289c-12.91-12.91-12.91-33.844 0-46.758 12.914-12.91 33.848-12.91 46.758 0l505.56 505.56c12.914 12.914 12.914 33.848 0 46.758-12.91 12.914-33.844 12.914-46.754 0l-87.707-87.703v16.375c0 60.332-51.727 87.059-100.91 51.926l-161.09-115.06h-84.188c-52.312 0-94.648-42.055-94.648-94.402v-126.07c0-47.391 34.652-86.461 80.266-93.332zm61.91 61.91-47.527-0.003907c-17.73 0-31.672 13.945-31.672 31.426v126.07c0 17.473 14.047 31.426 31.672 31.426l62.793-0.007813v-173.65zm128.91-50.762-45.566-45.566 114.4-81.715c49.074-35.055 100.91-8.3945 100.91 51.93v245.1l-62.977-62.977v-181.96zm268.14 268.14-44.988-44.988c24.797-17.023 41.059-45.578 41.059-77.93 0-41.129-26.285-76.121-62.977-89.086v-65.203c71.863 14.586 125.95 78.121 125.95 154.29 0 49.727-23.051 94.066-59.047 122.92z" fill="#605d67"/>
</svg>
