<?xml version="1.0" encoding="UTF-8"?>
<svg width="1200pt" height="1200pt" version="1.1" viewBox="0 0 1200 1200" xmlns="http://www.w3.org/2000/svg">
 <path d="m442.56 505.55-62.793-0.007813c-17.73 0-31.672 13.945-31.672 31.426v126.07c0 17.473 14.047 31.426 31.672 31.426l62.793-0.007813zm62.977-15.078v219.09l157.44 111.02v-440.99zm119.5-162.97c49.074-35.055 100.91-8.3945 100.91 51.93v441.14c0 60.332-51.727 87.059-100.91 51.926l-161.09-115.06h-84.188c-52.312 0-94.648-42.055-94.648-94.402v-126.07c0-52.262 42.137-94.402 94.648-94.402h84.188zm132.4 118.21c71.863 14.586 125.95 78.121 125.95 154.29 0 76.172-54.09 139.71-125.95 154.29v-65.203c36.691-12.969 62.977-47.957 62.977-89.09 0-41.129-26.285-76.121-62.977-89.086z" fill="#605d67"/>
</svg>
